<svg version="1.0" xmlns="http://www.w3.org/2000/svg"
 width="100.000000pt" height="100.000000pt" viewBox="0 0 100.000000 100.000000"
 preserveAspectRatio="xMidYMid meet">
<g transform="translate(0.000000,100.000000) scale(0.100000,-0.100000)"
fill="#000000" stroke="none">
<path d="M246 774 c-24 -25 -26 -33 -26 -108 0 -51 5 -87 12 -94 9 -9 72 -12
220 -12 l208 0 17 26 c16 25 16 29 -7 98 -40 116 -40 116 -233 116 -164 0
-164 0 -191 -26z"/>
<path d="M684 728 c2 -7 10 -30 17 -50 l12 -38 144 0 143 0 0 50 0 50 -161 0
c-125 0 -160 -3 -155 -12z"/>
<path d="M42 509 c-40 -29 -42 -33 -42 -82 0 -42 7 -62 46 -124 26 -42 58 -80
74 -88 43 -22 717 -22 760 0 16 8 48 46 74 88 39 62 46 82 46 124 0 49 -2 53
-42 82 l-42 31 -416 0 -416 0 -42 -31z m887 -146 c-45 -76 -63 -96 -95 -109
-48 -20 -620 -20 -668 0 -32 13 -50 33 -95 109 l-23 37 452 0 452 0 -23 -37z"/>
</g>
</svg>
